<mxfile host="65bd71144e">
    <diagram id="ye8kOKw4zOoNDUFv6kBb" name="Page-1">
        <mxGraphModel dx="1058" dy="679" grid="1" gridSize="10" guides="1" tooltips="1" connect="1" arrows="1" fold="1" page="1" pageScale="1" pageWidth="850" pageHeight="1100" math="0" shadow="0">
            <root>
                <mxCell id="0"/>
                <mxCell id="1" parent="0"/>
                <mxCell id="6" style="edgeStyle=none;html=1;exitX=0.5;exitY=1;exitDx=0;exitDy=0;entryX=0.5;entryY=0;entryDx=0;entryDy=0;" edge="1" parent="1" source="2" target="3">
                    <mxGeometry relative="1" as="geometry"/>
                </mxCell>
                <mxCell id="2" value="Clean SNPs&lt;br&gt;(remove positions that have lower mutation than a threshold)" style="shape=step;perimeter=stepPerimeter;whiteSpace=wrap;html=1;fixedSize=1;" vertex="1" parent="1">
                    <mxGeometry x="200" y="330" width="450" height="90" as="geometry"/>
                </mxCell>
                <mxCell id="8" style="edgeStyle=none;html=1;entryX=0.5;entryY=0;entryDx=0;entryDy=0;" edge="1" parent="1" source="3" target="7">
                    <mxGeometry relative="1" as="geometry"/>
                </mxCell>
                <mxCell id="3" value="Find Consistant Spans&lt;br&gt;(walk throught each position and try to build spans that create a consistant&lt;br&gt;&amp;nbsp;tree, each span contains start, end, individual removal count)" style="shape=step;perimeter=stepPerimeter;whiteSpace=wrap;html=1;fixedSize=1;" vertex="1" parent="1">
                    <mxGeometry x="200" y="490" width="450" height="90" as="geometry"/>
                </mxCell>
                <mxCell id="5" style="edgeStyle=none;html=1;" edge="1" parent="1" source="4" target="2">
                    <mxGeometry relative="1" as="geometry"/>
                </mxCell>
                <mxCell id="4" value="VCF" style="whiteSpace=wrap;html=1;shape=mxgraph.basic.document" vertex="1" parent="1">
                    <mxGeometry x="375" y="160" width="100" height="100" as="geometry"/>
                </mxCell>
                <mxCell id="7" value="Span Selection&lt;br&gt;Find spans that cover all the genome using Dynamic Programming&lt;br&gt;&amp;nbsp;and try to optimize aR+bD where R is importance of recombination and&lt;br&gt;&amp;nbsp;D is importance of keeping individuals)&amp;nbsp;" style="shape=step;perimeter=stepPerimeter;whiteSpace=wrap;html=1;fixedSize=1;" vertex="1" parent="1">
                    <mxGeometry x="200" y="640" width="450" height="90" as="geometry"/>
                </mxCell>
            </root>
        </mxGraphModel>
    </diagram>
</mxfile>